<?xml version="1.0" encoding="utf-8" ?>
<svg baseProfile="full" height="620" version="1.1" width="850" xmlns="http://www.w3.org/2000/svg" xmlns:ev="http://www.w3.org/2001/xml-events" xmlns:xlink="http://www.w3.org/1999/xlink"><defs /><g><line opacity="0.75" stroke="#D6DAE0" stroke-width="4.199999999999999" x1="109.0" x2="683.0" y1="126.0" y2="126.0" /><line opacity="0.75" stroke="#D6DAE0" stroke-width="4.199999999999999" x1="109.0" x2="683.0" y1="448.0" y2="448.0" /><line opacity="0.65" stroke="#D6DAE0" stroke-width="3.5" x1="311.72" x2="311.72" y1="110.6" y2="463.4" /><line opacity="0.65" stroke="#D6DAE0" stroke-width="3.5" x1="444.15999999999997" x2="444.15999999999997" y1="110.6" y2="463.4" /><line opacity="0.65" stroke="#D6DAE0" stroke-width="3.5" x1="540.48" x2="540.48" y1="110.6" y2="463.4" /><line stroke="#D6DAE0" stroke-linecap="round" stroke-width="4.199999999999999" x1="103.4" x2="137.0" y1="154.0" y2="154.0" /><line stroke="#D6DAE0" stroke-linecap="round" stroke-width="4.199999999999999" x1="103.4" x2="137.0" y1="214.2" y2="214.2" /><line stroke="#D6DAE0" stroke-linecap="round" stroke-width="4.199999999999999" x1="103.4" x2="137.0" y1="274.4" y2="274.4" /><line stroke="#D6DAE0" stroke-linecap="round" stroke-width="4.199999999999999" x1="103.4" x2="137.0" y1="334.6" y2="334.6" /><line stroke="#D6DAE0" stroke-linecap="round" stroke-width="4.199999999999999" x1="103.4" x2="137.0" y1="394.79999999999995" y2="394.79999999999995" /><line opacity="0.7" stroke="#D6DAE0" stroke-width="3.5" x1="120.2" x2="120.2" y1="140.0" y2="434.0" /><line stroke="#D6DAE0" stroke-linecap="round" stroke-width="4.199999999999999" x1="655.0" x2="688.5999999999999" y1="154.0" y2="154.0" /><line stroke="#D6DAE0" stroke-linecap="round" stroke-width="4.199999999999999" x1="655.0" x2="688.5999999999999" y1="214.2" y2="214.2" /><line stroke="#D6DAE0" stroke-linecap="round" stroke-width="4.199999999999999" x1="655.0" x2="688.5999999999999" y1="274.4" y2="274.4" /><line stroke="#D6DAE0" stroke-linecap="round" stroke-width="4.199999999999999" x1="655.0" x2="688.5999999999999" y1="334.6" y2="334.6" /><line stroke="#D6DAE0" stroke-linecap="round" stroke-width="4.199999999999999" x1="655.0" x2="688.5999999999999" y1="394.79999999999995" y2="394.79999999999995" /><line opacity="0.7" stroke="#D6DAE0" stroke-width="3.5" x1="671.8" x2="671.8" y1="140.0" y2="434.0" /><line opacity="0.7" stroke="#D6DAE0" stroke-width="3.5" x1="341.82" x2="341.82" y1="429.8" y2="477.4" /><line stroke="#D6DAE0" stroke-linecap="round" stroke-width="4.199999999999999" x1="325.02" x2="358.62" y1="452.2" y2="452.2" /><line opacity="0.7" stroke="#D6DAE0" stroke-width="3.5" x1="450.18" x2="450.18" y1="429.8" y2="477.4" /><line stroke="#D6DAE0" stroke-linecap="round" stroke-width="4.199999999999999" x1="433.38" x2="466.98" y1="452.2" y2="452.2" /><path d="M 200.0,413.0 C 176.2,350.0 215.39999999999998,233.79999999999998 291.0,133.0" fill="none" stroke="#1769FF" stroke-linecap="round" stroke-linejoin="round" stroke-width="14.0" /><line stroke="#1769FF" stroke-linecap="round" stroke-width="14.0" x1="291.0" x2="264.4" y1="133.0" y2="147.0" /><line stroke="#1769FF" stroke-linecap="round" stroke-width="14.0" x1="291.0" x2="284.0" y1="133.0" y2="161.0" /><circle cx="200.0" cy="413.0" fill="none" r="25.2" stroke="#1769FF" stroke-width="12.6" /><line stroke="#1769FF" stroke-linecap="square" stroke-width="50.4" x1="285.4" x2="417.0" y1="214.2" y2="348.6" /><line stroke="#1769FF" stroke-linecap="square" stroke-width="50.4" x1="417.0" x2="285.4" y1="214.2" y2="348.6" /><rect fill="none" height="134.39999999999998" rx="42.0" ry="42.0" stroke="#95CC1F" stroke-width="42.0" width="170.79999999999998" x="480.0" y="214.2" /><line stroke="#FF7A00" stroke-linecap="round" stroke-width="11.2" x1="470.19999999999993" x2="509.4" y1="138.6" y2="177.79999999999998" /><line stroke="#FF7A00" stroke-linecap="round" stroke-width="11.2" x1="509.4" x2="470.19999999999993" y1="138.6" y2="177.79999999999998" /><path d="M 523.4,177.8 C 575.2,168.0 617.1999999999999,141.4 677.4,112.0" fill="none" stroke="#95CC1F" stroke-dasharray="[15.399999999999999, 12.6]" stroke-linecap="round" stroke-width="9.799999999999999" /><line stroke="#95CC1F" stroke-linecap="round" stroke-width="9.799999999999999" x1="677.4" x2="653.5999999999999" y1="112.0" y2="117.6" /><line stroke="#95CC1F" stroke-linecap="round" stroke-width="9.799999999999999" x1="677.4" x2="666.1999999999999" y1="112.0" y2="134.4" /><path d="M 386.2,420.0 C 452.0,432.59999999999997 531.8,431.2 600.4,375.2" fill="none" stroke="#FF7A00" stroke-dasharray="[16.799999999999997, 14.0]" stroke-linecap="round" stroke-width="9.799999999999999" /></g></svg>