<?xml version="1.0" encoding="utf-8" ?>
<svg baseProfile="full" height="900" version="1.1" width="1400" xmlns="http://www.w3.org/2000/svg" xmlns:ev="http://www.w3.org/2001/xml-events" xmlns:xlink="http://www.w3.org/1999/xlink"><defs /><g><line opacity="0.75" stroke="#D6DAE0" stroke-width="4.65" x1="375.5" x2="1011.0" y1="133.25" y2="133.25" /><line opacity="0.75" stroke="#D6DAE0" stroke-width="4.65" x1="375.5" x2="1011.0" y1="489.75" y2="489.75" /><line opacity="0.65" stroke="#D6DAE0" stroke-width="3.875" x1="599.94" x2="599.94" y1="116.2" y2="506.8" /><line opacity="0.65" stroke="#D6DAE0" stroke-width="3.875" x1="746.5699999999999" x2="746.5699999999999" y1="116.2" y2="506.8" /><line opacity="0.65" stroke="#D6DAE0" stroke-width="3.875" x1="853.21" x2="853.21" y1="116.2" y2="506.8" /><line stroke="#D6DAE0" stroke-linecap="round" stroke-width="4.65" x1="369.29999999999995" x2="406.5" y1="164.25" y2="164.25" /><line stroke="#D6DAE0" stroke-linecap="round" stroke-width="4.65" x1="369.29999999999995" x2="406.5" y1="230.9" y2="230.9" /><line stroke="#D6DAE0" stroke-linecap="round" stroke-width="4.65" x1="369.29999999999995" x2="406.5" y1="297.55" y2="297.55" /><line stroke="#D6DAE0" stroke-linecap="round" stroke-width="4.65" x1="369.29999999999995" x2="406.5" y1="364.20000000000005" y2="364.20000000000005" /><line stroke="#D6DAE0" stroke-linecap="round" stroke-width="4.65" x1="369.29999999999995" x2="406.5" y1="430.85" y2="430.85" /><line opacity="0.7" stroke="#D6DAE0" stroke-width="3.875" x1="387.9" x2="387.9" y1="148.75" y2="474.25" /><line stroke="#D6DAE0" stroke-linecap="round" stroke-width="4.65" x1="980.0" x2="1017.2" y1="164.25" y2="164.25" /><line stroke="#D6DAE0" stroke-linecap="round" stroke-width="4.65" x1="980.0" x2="1017.2" y1="230.9" y2="230.9" /><line stroke="#D6DAE0" stroke-linecap="round" stroke-width="4.65" x1="980.0" x2="1017.2" y1="297.55" y2="297.55" /><line stroke="#D6DAE0" stroke-linecap="round" stroke-width="4.65" x1="980.0" x2="1017.2" y1="364.20000000000005" y2="364.20000000000005" /><line stroke="#D6DAE0" stroke-linecap="round" stroke-width="4.65" x1="980.0" x2="1017.2" y1="430.85" y2="430.85" /><line opacity="0.7" stroke="#D6DAE0" stroke-width="3.875" x1="998.6" x2="998.6" y1="148.75" y2="474.25" /><line opacity="0.7" stroke="#D6DAE0" stroke-width="3.875" x1="633.265" x2="633.265" y1="469.6" y2="522.3" /><line stroke="#D6DAE0" stroke-linecap="round" stroke-width="4.65" x1="614.665" x2="651.865" y1="494.4" y2="494.4" /><line opacity="0.7" stroke="#D6DAE0" stroke-width="3.875" x1="753.2349999999999" x2="753.2349999999999" y1="469.6" y2="522.3" /><line stroke="#D6DAE0" stroke-linecap="round" stroke-width="4.65" x1="734.6349999999999" x2="771.8349999999999" y1="494.4" y2="494.4" /><path d="M 476.25,451.0 C 449.9,381.25 493.3,252.6 577.0,141.0" fill="none" stroke="#1769FF" stroke-linecap="round" stroke-linejoin="round" stroke-width="15.5" /><line stroke="#1769FF" stroke-linecap="round" stroke-width="15.5" x1="577.0" x2="547.55" y1="141.0" y2="156.5" /><line stroke="#1769FF" stroke-linecap="round" stroke-width="15.5" x1="577.0" x2="569.25" y1="141.0" y2="172.0" /><circle cx="476.25" cy="451.0" fill="none" r="27.900000000000002" stroke="#1769FF" stroke-width="13.950000000000001" /><line stroke="#1769FF" stroke-linecap="square" stroke-width="55.800000000000004" x1="570.8" x2="716.5" y1="230.9" y2="379.7" /><line stroke="#1769FF" stroke-linecap="square" stroke-width="55.800000000000004" x1="716.5" x2="570.8" y1="230.9" y2="379.7" /><rect fill="none" height="148.8" rx="46.5" ry="46.5" stroke="#95CC1F" stroke-width="46.5" width="189.1" x="786.25" y="230.9" /><line stroke="#FF7A00" stroke-linecap="round" stroke-width="12.4" x1="775.4" x2="818.8000000000001" y1="147.20000000000002" y2="190.6" /><line stroke="#FF7A00" stroke-linecap="round" stroke-width="12.4" x1="818.8000000000001" x2="775.4" y1="147.20000000000002" y2="190.6" /><path d="M 834.3,190.60000000000002 C 891.65,179.75 938.15,150.3 1004.8000000000001,117.75" fill="none" stroke="#95CC1F" stroke-dasharray="[17.05, 13.950000000000001]" stroke-linecap="round" stroke-width="10.85" /><line stroke="#95CC1F" stroke-linecap="round" stroke-width="10.85" x1="1004.8000000000001" x2="978.45" y1="117.75" y2="123.95" /><line stroke="#95CC1F" stroke-linecap="round" stroke-width="10.85" x1="1004.8000000000001" x2="992.4" y1="117.75" y2="142.55" /><path d="M 682.4000000000001,458.75 C 755.25,472.7 843.6,471.15000000000003 919.5500000000001,409.15000000000003" fill="none" stroke="#FF7A00" stroke-dasharray="[18.6, 15.5]" stroke-linecap="round" stroke-width="10.85" /></g><g><text dominant-baseline="hanging" fill="#1769FF" font-family="DejaVu Sans, Arial, sans-serif" font-size="170" font-style="oblique" font-weight="700" x="-121.67999999999995" y="590">x</text><text dominant-baseline="hanging" fill="#95CC1F" font-family="DejaVu Sans, Arial, sans-serif" font-size="170" font-style="oblique" font-weight="700" x="-8.219999999999942" y="590">o</text><text dominant-baseline="hanging" fill="#06255E" font-family="DejaVu Sans, Arial, sans-serif" font-size="170" font-style="oblique" font-weight="700" x="99.42000000000006" y="590">gridmaker</text><text dominant-baseline="hanging" fill="#FF7A00" font-family="DejaVu Sans, Arial, sans-serif" font-size="170" font-style="oblique" font-weight="700" x="1082.49" y="590">.com</text></g></svg>